<?xml version="1.0" standalone="no"?>
<!DOCTYPE svg PUBLIC "-//W3C//DTD SVG 20010904//EN"
 "http://www.w3.org/TR/2001/REC-SVG-20010904/DTD/svg10.dtd">
<svg version="1.0" xmlns="http://www.w3.org/2000/svg"
 width="512.000000pt" height="512.000000pt" viewBox="0 0 512.000000 512.000000"
 preserveAspectRatio="xMidYMid meet">
<metadata>
Created by potrace 1.11, written by Peter Selinger 2001-2013
</metadata>
<g transform="translate(0.000000,512.000000) scale(0.100000,-0.100000)"
fill="#000000" stroke="none">
<path d="M2300 5104 c-832 -97 -1552 -569 -1970 -1294 -102 -177 -214 -456
-255 -636 -21 -92 -45 -226 -56 -304 -14 -103 -18 -438 -7 -560 15 -160 78
-449 122 -568 54 -143 75 -191 127 -297 93 -189 158 -291 290 -460 303 -387
725 -685 1196 -844 112 -38 243 -74 308 -86 17 -2 41 -7 55 -10 133 -27 267
-38 455 -39 269 -1 409 13 672 69 22 5 21 6 -19 118 -127 351 -126 544 5 737
52 76 182 195 305 278 142 96 279 174 565 320 460 236 637 350 797 513 120
122 186 249 214 414 15 82 15 429 1 525 -53 364 -113 572 -233 805 -52 100
-162 267 -202 305 -3 3 -37 46 -75 95 -86 112 -252 279 -365 369 -47 37 -93
74 -103 82 -9 8 -21 14 -26 14 -5 0 -14 7 -22 16 -7 8 -29 24 -48 35 -20 11
-52 29 -71 41 -272 166 -577 279 -925 342 -11 2 -47 7 -80 11 -32 4 -68 9 -80
12 -49 11 -467 9 -575 -3z m565 -319 c22 -3 81 -13 130 -21 299 -50 614 -173
865 -339 58 -38 107 -72 110 -75 3 -3 28 -23 55 -44 86 -67 287 -276 365 -380
110 -144 148 -202 196 -293 35 -69 41 -87 33 -110 -5 -16 -23 -71 -40 -123
-147 -455 -550 -823 -1179 -1080 -58 -23 -114 -46 -125 -51 -21 -9 -136 -52
-145 -54 -3 -1 -14 -5 -25 -10 -11 -4 -101 -39 -199 -78 -327 -126 -526 -213
-741 -322 -365 -187 -592 -378 -719 -606 -29 -53 -83 -187 -90 -221 -2 -13 -9
-41 -14 -63 -6 -22 -13 -57 -16 -78 -14 -87 -18 -112 -21 -116 -9 -8 -189 134
-282 222 l-52 50 4 71 c25 385 137 591 435 795 47 32 105 70 130 84 112 62
235 123 350 174 69 30 139 61 155 68 84 37 409 164 700 274 844 317 1255 612
1319 948 12 67 13 84 1 148 -12 63 -82 115 -154 115 -91 0 -148 -57 -161 -162
-11 -94 -33 -134 -115 -215 -189 -186 -525 -358 -1171 -598 -99 -37 -192 -73
-209 -80 -16 -7 -95 -38 -175 -70 -80 -32 -167 -68 -195 -80 -27 -13 -93 -42
-145 -65 -52 -23 -154 -72 -226 -110 -452 -235 -675 -452 -787 -765 -14 -38
-25 -72 -25 -75 -1 -22 -16 -81 -21 -85 -12 -7 -140 226 -177 322 -16 40 -15
44 16 142 108 340 275 517 680 720 85 42 180 88 210 100 30 13 73 31 95 41 22
10 108 46 190 80 268 111 427 188 577 277 329 195 487 388 497 608 4 108 -75
191 -172 181 -93 -10 -145 -64 -152 -158 -5 -71 -26 -109 -99 -181 -129 -128
-387 -270 -806 -445 -562 -235 -818 -380 -1010 -572 -47 -47 -105 -116 -129
-153 -25 -37 -48 -67 -53 -67 -4 0 -8 15 -9 33 0 17 -3 41 -5 52 -13 59 -6
430 10 510 2 11 7 43 10 70 4 28 12 68 18 90 5 22 12 51 14 65 7 41 64 219 94
295 117 295 274 530 510 765 214 214 449 371 726 486 211 87 362 124 684 167
42 6 423 -1 465 -8z m1912 -1782 c0 -10 4 -56 8 -103 19 -230 11 -388 -26
-475 -86 -202 -277 -341 -904 -658 -414 -210 -578 -317 -750 -491 -165 -166
-243 -308 -291 -528 -12 -53 -10 -249 4 -326 7 -46 11 -87 7 -90 -9 -9 -405
-11 -462 -2 -27 5 -73 11 -103 15 -148 17 -350 73 -538 147 l-103 41 6 76 c34
423 193 646 630 882 91 49 153 79 345 167 89 41 380 157 580 232 345 130 431
166 626 265 187 96 396 231 524 339 141 120 328 334 397 455 25 43 43 71 47
71 1 0 2 -8 3 -17z"/>
</g>
</svg>
